<?xml version="1.0" standalone="no"?>
<!DOCTYPE svg PUBLIC "-//W3C//DTD SVG 20010904//EN"
 "http://www.w3.org/TR/2001/REC-SVG-20010904/DTD/svg10.dtd">
<svg version="1.0" xmlns="http://www.w3.org/2000/svg"
 width="16.000000pt" height="16.000000pt" viewBox="0 0 16.000000 16.000000"
 preserveAspectRatio="xMidYMid meet">
<metadata>
Created by potrace 1.11, written by Peter Selinger 2001-2013
</metadata>
<g transform="translate(0.000000,16.000000) scale(0.001600,-0.001600)"
fill="#000000" stroke="none">
<path d="M0 5000 l0 -5000 5000 0 5000 0 0 5000 0 5000 -5000 0 -5000 0 0
-5000z m5322 4359 c70 -15 123 -50 157 -104 37 -59 44 -86 91 -375 46 -277 61
-340 87 -356 10 -6 59 -24 108 -39 132 -40 201 -68 398 -162 l177 -86 38 15
c49 20 242 148 369 245 210 162 278 184 372 123 25 -16 159 -143 298 -282 259
-260 292 -303 293 -374 0 -48 -42 -118 -214 -359 -87 -121 -163 -231 -168
-245 -6 -14 -15 -35 -21 -48 -8 -16 -7 -26 1 -34 7 -7 12 -23 12 -37 0 -13 16
-53 35 -87 55 -101 126 -268 175 -414 37 -111 49 -137 70 -147 14 -6 122 -28
240 -47 352 -58 416 -72 451 -95 58 -36 79 -58 99 -103 18 -40 20 -67 20 -414
l0 -371 -28 -69 c-16 -38 -44 -114 -62 -169 -68 -207 -176 -401 -335 -596
-225 -279 -445 -515 -830 -890 -475 -463 -605 -596 -901 -925 -252 -279 -522
-643 -712 -959 -36 -60 -86 -139 -110 -174 -48 -71 -103 -176 -121 -234 -7
-20 -40 -91 -72 -157 -33 -66 -68 -144 -78 -173 -11 -28 -50 -135 -88 -237
-38 -102 -74 -198 -79 -215 -5 -16 -14 -29 -19 -28 -6 1 -18 30 -28 65 -101
354 -172 550 -288 804 -190 414 -400 756 -679 1110 -202 255 -695 766 -1150
1191 -419 391 -795 788 -957 1008 -125 171 -297 544 -315 685 -5 41 -8 214 -6
385 4 307 5 310 29 353 14 25 48 59 83 84 54 38 69 43 190 64 430 73 503 86
523 100 15 9 29 38 43 87 37 126 101 288 172 431 47 97 68 150 68 176 0 43
-27 87 -224 360 -155 216 -189 279 -180 335 11 71 67 144 220 290 81 77 186
178 235 225 117 112 149 130 236 130 67 0 70 -1 153 -60 146 -102 424 -286
457 -303 53 -28 84 -21 224 52 142 73 306 143 386 162 93 23 130 45 142 81 6
19 36 175 65 347 49 284 57 318 83 355 35 49 110 97 166 107 73 12 641 10 699
-2z"/>
<path d="M4835 7924 c-321 -33 -519 -90 -793 -226 -330 -165 -641 -475 -812
-810 -172 -335 -233 -584 -234 -948 -1 -346 57 -603 204 -905 96 -198 192
-332 361 -506 108 -111 186 -176 308 -258 216 -146 552 -278 747 -295 l61 -5
7 274 c7 266 4 337 -16 362 -5 6 -46 24 -91 39 -97 32 -254 110 -325 162 -122
89 -238 182 -249 201 -7 11 -39 51 -71 88 -71 83 -179 276 -221 395 -91 263
-99 588 -20 819 74 215 182 405 305 539 133 143 328 273 524 348 174 67 269
84 460 84 186 0 248 -9 405 -59 249 -79 481 -237 642 -435 75 -92 141 -199
193 -312 94 -203 125 -360 117 -586 -12 -356 -159 -677 -427 -939 -111 -108
-358 -258 -495 -301 -22 -7 -55 -19 -72 -27 l-33 -15 0 -317 0 -317 73 7 c211
20 571 172 782 330 201 150 428 396 537 583 59 100 140 283 182 411 133 401
129 881 -10 1287 -162 473 -496 869 -925 1096 -210 112 -433 186 -652 217
-111 16 -385 27 -462 19z"/>
</g>
</svg>
